<?xml version="1.0" encoding="utf-8"?>
<!-- Generator: Adobe Illustrator 23.0.1, SVG Export Plug-In . SVG Version: 6.00 Build 0)  -->
<svg version="1.1" id="Layer_1" xmlns="http://www.w3.org/2000/svg" xmlns:xlink="http://www.w3.org/1999/xlink" x="0px" y="0px"
	 viewBox="0 0 191.4 40.7" style="enable-background:new 0 0 191.4 40.7;" xml:space="preserve">
<style type="text/css">
	.st0{fill:#FFFFFF;}
	.st1{fill:#F7EC13;}
</style>
<path class="st0" d="M13.5,27.5l-3.7,4v8.8H0v-35h9.8v14.5L23.4,5.2h10.9L20,20.7l15,19.5H23.5L13.5,27.5z"/>
<path class="st0" d="M58.5,15.7c2.4,2.1,3.6,5.2,3.6,9.4v15h-8.9v-3.5c-1.4,2.6-4,4-8,4c-2.1,0-3.9-0.4-5.5-1.1
	c-1.5-0.7-2.7-1.7-3.5-3s-1.2-2.7-1.2-4.3c0-2.6,1-4.6,3-6c2-1.4,5-2.1,9.1-2.1h5.4c-0.2-2.9-2.1-4.3-5.8-4.3c-1.3,0-2.6,0.2-4,0.6
	c-1.3,0.4-2.5,1-3.4,1.7l-3.2-6.4c1.5-1,3.3-1.8,5.5-2.3c2.1-0.5,4.3-0.8,6.5-0.8C52.7,12.7,56.1,13.7,58.5,15.7z M50.7,33.9
	c0.8-0.5,1.4-1.3,1.8-2.4v-2.3h-4.1c-2.8,0-4.1,0.9-4.1,2.8c0,0.8,0.3,1.5,0.9,2c0.6,0.5,1.5,0.8,2.6,0.8S49.9,34.4,50.7,33.9z"/>
<path class="st0" d="M80.8,13.6c1.5-0.6,3.3-0.9,5.3-0.9v8.5c-0.9-0.1-1.6-0.1-2.2-0.1c-2,0-3.6,0.5-4.8,1.6s-1.7,2.8-1.7,5v12.5H68
	V13.1h9.1v3.3C78,15.1,79.3,14.2,80.8,13.6z"/>
<path class="st0" d="M95.6,38.9c-2.3-1.2-4.2-2.9-5.5-5c-1.3-2.1-2-4.5-2-7.3c0-2.7,0.7-5.1,2-7.2c1.3-2.1,3.1-3.8,5.4-5
	c2.3-1.2,4.9-1.8,7.9-1.8c2.9,0,5.6,0.6,7.9,1.8c2.3,1.2,4.2,2.8,5.5,4.9c1.3,2.1,2,4.5,2,7.2c0,2.7-0.7,5.1-2,7.3
	c-1.3,2.1-3.1,3.8-5.5,5c-2.3,1.2-5,1.8-7.9,1.8C100.5,40.7,97.9,40.1,95.6,38.9z M107.5,31.4c1.1-1.1,1.6-2.7,1.6-4.8
	c0-2-0.5-3.6-1.6-4.7c-1.1-1.1-2.4-1.7-4.1-1.7c-1.7,0-3,0.6-4.1,1.7c-1.1,1.1-1.6,2.7-1.6,4.7c0,2,0.5,3.6,1.6,4.8
	c1.1,1.2,2.4,1.7,4.1,1.7C105.1,33.1,106.4,32.5,107.5,31.4z"/>
<path class="st0" d="M123.1,3.1h9.5v37.1h-9.5V3.1z"/>
<path class="st0" d="M139.3,8.7c-1.1-1-1.6-2.2-1.6-3.6c0-1.4,0.5-2.6,1.6-3.6c1.1-1,2.5-1.5,4.2-1.5s3.1,0.5,4.2,1.4
	c1.1,0.9,1.6,2.1,1.6,3.5c0,1.5-0.5,2.7-1.6,3.7c-1.1,1-2.5,1.5-4.2,1.5S140.4,9.6,139.3,8.7z M138.7,13.1h9.5v27.1h-9.5V13.1z"/>
<path class="st0" d="M157.5,39.9c-2.2-0.5-4-1.2-5.3-2l2.8-6.5c1.2,0.8,2.7,1.4,4.4,1.8c1.7,0.4,3.4,0.7,5,0.7
	c1.5,0,2.6-0.2,3.3-0.5c0.7-0.3,1-0.8,1-1.4c0-0.6-0.4-1-1.2-1.3c-0.8-0.3-2-0.5-3.7-0.7c-2.2-0.3-4-0.6-5.5-1
	c-1.5-0.4-2.8-1.2-3.9-2.4c-1.1-1.2-1.6-2.8-1.6-4.9c0-1.7,0.5-3.3,1.5-4.6c1-1.4,2.5-2.4,4.5-3.2c2-0.8,4.4-1.2,7.1-1.2
	c2,0,3.9,0.2,5.8,0.6c1.9,0.4,3.5,1,4.8,1.7l-2.8,6.5c-2.4-1.3-5-2-7.8-2c-1.5,0-2.6,0.2-3.3,0.5c-0.7,0.4-1.1,0.8-1.1,1.4
	c0,0.6,0.4,1.1,1.2,1.3c0.8,0.3,2,0.5,3.8,0.8c2.2,0.3,4.1,0.7,5.5,1.1c1.5,0.4,2.7,1.2,3.8,2.4s1.6,2.8,1.6,4.8
	c0,1.7-0.5,3.2-1.5,4.6s-2.6,2.4-4.6,3.2c-2,0.8-4.4,1.2-7.3,1.2C162,40.7,159.7,40.4,157.5,39.9z"/>
<path class="st1" d="M181.7,39.1c-1.1-1.1-1.7-2.4-1.7-4.1c0-1.7,0.5-3,1.6-4c1.1-1,2.4-1.5,4.1-1.5c1.7,0,3,0.5,4.1,1.5
	c1.1,1,1.6,2.4,1.6,4c0,1.6-0.5,3-1.6,4.1c-1.1,1.1-2.4,1.6-4.1,1.6C184.1,40.7,182.8,40.1,181.7,39.1z"/>
</svg>
